<svg width="80" height="69" viewBox="0 0 80 69" fill="none" xmlns="http://www.w3.org/2000/svg">
<path fill-rule="evenodd" clip-rule="evenodd" d="M25.5303 1.52431C26.0104 1.03381 26.506 0.575554 27.0173 0.14502C24.3829 3.52367 23.246 7.70625 23.6034 11.7785H23.599C23.9441 15.9447 26.1603 20.6347 29.2436 23.7277C33.1129 27.6127 38.2435 29.7331 43.6846 29.7009C49.1268 29.6692 54.2322 27.4888 58.0598 23.5614C58.1585 23.4595 58.2572 23.3554 58.3553 23.2485C57.3924 25.7231 55.9333 28.0455 53.9752 30.0573C46.2108 38.0275 33.5478 38.1005 25.6942 30.2208C17.839 22.3416 17.7687 9.49288 25.5303 1.52431Z" fill="#144C3B"/>
<path fill-rule="evenodd" clip-rule="evenodd" d="M59.006 12.6456L58.5967 10.6434C57.7197 7.23536 55.9573 4.01568 53.3089 1.35949C52.8256 0.876911 52.3271 0.421483 51.8091 0C56.9302 6.41729 56.5845 15.8557 50.7286 21.8685C50.7286 21.8685 46.2331 26.6586 41.0072 26.6173C36.7431 26.5132 34.8575 26.0193 30.6425 24.244C38.3277 30.723 49.7897 30.2693 56.9402 22.9292C57.5457 22.3092 58.0988 21.6597 58.6045 20.9848C59.312 18.2612 59.4514 15.4189 59.0277 12.6479L59.006 12.6456Z" fill="#C7AD98"/>
<path fill-rule="evenodd" clip-rule="evenodd" d="M32.2013 15.0459C32.2013 10.9482 35.4735 7.62842 39.5113 7.62842C43.5484 7.62842 46.819 10.9482 46.819 15.0459C46.819 19.142 43.5484 22.4629 39.5113 22.4629C35.4735 22.4629 32.2013 19.142 32.2013 15.0459Z" fill="#144C3B"/>
<path fill-rule="evenodd" clip-rule="evenodd" d="M36.6104 8.97225C36.7281 8.96376 36.7442 8.85401 36.8519 8.83647C36.8429 8.87098 36.7861 8.86023 36.7944 8.91285C36.8675 8.98809 37.0988 8.86306 37.0927 9.03109C37.2321 9.07295 37.3882 9.04127 37.5432 9.05881C37.5131 8.99601 37.575 9.00167 37.5811 8.95188C37.5761 8.93265 37.5248 8.95924 37.5337 8.92416C37.5599 8.86815 37.5934 8.82119 37.6101 8.7567C37.5939 8.74821 37.5627 8.75444 37.5527 8.73746C37.5627 8.70125 37.5978 8.6939 37.6006 8.65034C37.5716 8.59037 37.5036 8.56717 37.4579 8.52361C37.3419 8.54737 37.2466 8.59037 37.168 8.65034C37.1791 8.74595 37.3185 8.66788 37.3603 8.68881C37.3001 8.68598 37.3497 8.73633 37.3709 8.73746C37.2828 8.77028 37.1947 8.70578 37.1022 8.73746C37.0576 8.62658 36.8987 8.74029 36.8719 8.7567C36.911 8.62262 37.0871 8.62658 37.1501 8.51343C37.1133 8.49532 37.0738 8.50947 37.0632 8.54228C36.8675 8.60168 36.6701 8.71031 36.65 8.91285C36.6394 8.93548 36.6177 8.94679 36.6104 8.97225ZM34.1333 10.2214C34.1595 10.1337 34.2163 9.99395 34.2866 9.91814C34.3362 10.05 34.1873 10.1314 34.1333 10.2214ZM33.8249 10.464C33.85 10.3871 33.9699 10.2881 34.0457 10.2581C34.0223 10.3379 33.898 10.4018 33.8249 10.464ZM33.7959 10.6395C33.8216 10.553 33.8924 10.5145 33.9403 10.4551C33.9314 10.5167 33.8623 10.6033 33.7959 10.6395ZM33.6616 10.9229C33.6493 10.8646 33.6816 10.8522 33.7 10.825C33.7341 10.8346 33.6566 10.8844 33.7101 10.8827C33.6973 10.9008 33.6894 10.9212 33.6616 10.9229ZM34.9194 10.2881C34.9289 10.0833 35.1764 10.0177 35.2885 9.86099C35.2935 9.84742 35.3002 9.83667 35.3074 9.82592C35.3454 9.76086 35.3738 9.66921 35.3331 9.57699C35.2366 9.63809 35.1446 9.68335 35.027 9.75237C34.9512 9.7965 34.8224 9.94755 34.7571 9.96622C34.707 9.98093 34.6562 9.95604 34.6122 9.96622C34.5074 9.99225 34.4605 10.098 34.3529 10.1337C34.4109 9.97754 34.5893 9.94755 34.6986 9.84968C34.7532 9.80102 34.8006 9.70711 34.8631 9.63526C34.9501 9.53399 35.0437 9.4644 35.0727 9.34333C35.2556 9.22226 35.4 9.03104 35.6587 9.02029C35.6258 9.06895 35.6922 9.09044 35.7172 9.10798C35.6141 9.13174 35.5444 9.19228 35.4965 9.27431C35.5104 9.2794 35.5455 9.26356 35.5455 9.2828C35.5232 9.31448 35.4948 9.33598 35.4769 9.37219C35.6319 9.30373 35.7011 9.14872 35.8722 9.09893C35.8734 9.14532 35.8572 9.15777 35.8817 9.18549C35.9943 9.22453 36.0507 9.08705 36.1588 9.14532C35.986 9.26526 35.981 9.55153 35.6699 9.5272C35.6258 9.51136 35.6308 9.4446 35.5918 9.42084C35.5734 9.43951 35.5215 9.4265 35.5059 9.45026C35.5115 9.62904 35.3855 9.71786 35.3074 9.82592L35.2952 9.84968L35.2885 9.86099C35.2623 9.90625 35.2478 9.95378 35.2556 10.0143C35.4842 10.0884 35.5126 9.83893 35.6699 9.78066C35.6554 9.86156 35.5907 9.93002 35.6319 9.98602C35.6788 9.9617 35.7306 9.94472 35.7858 9.92775C35.8639 9.86835 35.8767 9.77274 35.9291 9.69353C36.0022 9.58151 36.1499 9.5272 36.2185 9.41122C36.2319 9.37445 36.175 9.40896 36.1895 9.37219C36.2787 9.29411 36.3763 9.22226 36.4772 9.15777C36.5078 9.0531 36.5831 8.99087 36.6311 8.90375C36.5987 8.8896 36.5368 8.91619 36.5157 8.90375C36.5809 8.87376 36.6483 8.85057 36.6595 8.76684C36.4092 8.77362 36.2452 8.86584 36.1588 9.04122C36.1148 9.0384 36.0841 9.02029 36.064 8.99087C36.2029 8.84944 36.3924 8.76118 36.5725 8.66048C36.4131 8.6452 36.3227 8.79965 36.1973 8.75665C36.2731 8.71026 36.4142 8.73063 36.4382 8.63106C36.4432 8.59428 36.3947 8.61069 36.3818 8.59259C36.4984 8.50093 36.5892 8.38213 36.737 8.31989C36.684 8.39457 36.5669 8.40589 36.5441 8.51338C36.7442 8.42512 36.9862 8.3776 37.168 8.26954C37.3141 8.08624 37.6346 8.08002 37.8326 7.94933C37.6346 7.92444 37.536 7.99968 37.4289 8.06474C37.4456 8.06644 37.4752 8.05569 37.4679 8.08567C37.3564 8.07549 37.2271 8.14112 37.1223 8.14338H37.1206H37.11H37.1223L37.1312 8.13376C37.3341 8.06644 37.4869 7.94933 37.7266 7.91991C38.2262 7.68795 38.9109 7.64778 39.6162 7.62572C39.581 7.62572 39.5448 7.62402 39.5113 7.62402C38.5256 7.62402 37.585 7.82373 36.7264 8.18129C36.6584 8.2158 36.5915 8.24804 36.5251 8.28029C36.3662 8.3561 36.2068 8.43022 36.0512 8.50716C35.6565 8.72214 35.2829 8.97333 34.9356 9.25734C34.8804 9.30656 34.8224 9.36087 34.7666 9.41122C34.659 9.51023 34.5408 9.6081 34.4299 9.71107C34.0836 10.05 33.772 10.4217 33.4977 10.8228C33.4135 10.967 33.3282 11.1107 33.2334 11.2414C33.2044 11.2889 33.1776 11.337 33.1486 11.3857C33.1102 11.4915 33.0483 11.5843 32.9953 11.6776C32.9708 11.7246 32.9468 11.7749 32.9223 11.8241C32.9156 11.8451 32.9072 11.8666 32.9016 11.8881C32.9468 11.8021 32.992 11.7178 33.0561 11.6522C33.0544 11.6799 33.07 11.685 33.0951 11.6833C33.2551 11.6086 33.3159 11.4298 33.4402 11.3218C33.4419 11.3829 33.457 11.4287 33.4787 11.4683C33.4977 11.345 33.6816 11.3382 33.7675 11.4094C33.7435 11.4621 33.6894 11.4807 33.6816 11.5464C33.7536 11.5447 33.7748 11.5928 33.816 11.625C33.8773 11.4377 33.9665 11.2782 34.0937 11.156C34.1043 11.0683 34.0953 10.9636 34.1611 10.932C34.2247 11.0055 34.1985 11.1662 34.2581 11.2442C34.2743 11.2991 34.3251 11.2063 34.3529 11.2442C34.2871 11.3399 34.1595 11.3698 34.0836 11.4592C34.0658 11.6318 34.0072 11.8264 34.1411 11.9158C34.2152 11.7947 34.3284 11.6776 34.3161 11.4977C34.3847 11.35 34.4722 11.2205 34.6027 11.1368C34.635 11.0259 34.6852 10.9591 34.7293 10.8646C34.7588 10.7917 34.7884 10.7153 34.8241 10.6502C34.8954 10.5133 35.0092 10.4194 35.0649 10.2983C35.046 10.2842 34.9512 10.3159 34.9194 10.2881ZM37.3509 8.44661C37.4044 8.42002 37.5131 8.40305 37.5248 8.36741C37.5114 8.33686 37.2789 8.36345 37.3509 8.44661ZM37.2076 8.29841C37.3012 8.24862 37.3826 8.30124 37.4373 8.2209C37.4373 8.20506 37.4105 8.21581 37.4088 8.2028C37.4796 8.16093 37.5644 8.13378 37.6397 8.09531C37.464 8.09191 37.3207 8.20563 37.2076 8.29841ZM37.3888 13.4665C37.517 13.3556 37.7919 13.3918 37.89 13.2526C37.914 13.1242 37.7779 13.0439 37.7551 12.9403C37.7144 12.7672 37.8075 12.6122 37.7651 12.4244C37.6508 12.2863 37.5404 12.4736 37.4679 12.55C37.5081 12.5935 37.5644 12.6207 37.6006 12.6676C37.5577 12.9652 37.3882 13.1332 37.2655 13.3494C37.2884 13.4076 37.3548 13.4223 37.3888 13.4665ZM38.36 9.98606C38.2591 9.99737 38.2452 9.82991 38.1203 9.82991C38.1203 9.75863 38.1587 9.72638 38.1487 9.64491C37.9898 9.61606 37.885 9.5295 37.8225 9.40164C37.7724 9.39315 37.7517 9.41522 37.7082 9.41126C37.6798 9.39089 37.7088 9.36147 37.6776 9.36317C37.5694 9.366 37.5644 9.2636 37.4964 9.22456C37.435 9.23757 37.3687 9.24776 37.3141 9.26529C37.3102 9.22852 37.27 9.22965 37.2828 9.17647C37.1908 9.18552 37.168 9.12612 37.0821 9.12725C37.1022 9.09387 37.0788 9.07351 37.0531 9.0588C36.8691 9.09218 36.7626 9.19854 36.7175 9.37222C36.7197 9.40334 36.7682 9.38297 36.7649 9.42087C36.6824 9.61266 36.5134 9.71789 36.3818 9.85876C36.3746 9.8995 36.3952 9.91081 36.3896 9.94589C36.3768 9.95211 36.3662 9.96173 36.3523 9.96626C36.2982 9.98323 36.3177 9.92439 36.2653 9.93797C36.1778 9.96173 36.2358 10.1354 36.1315 10.1416C36.1086 10.1365 36.0869 10.1281 36.054 10.1337C35.8784 10.1982 35.7557 10.3182 35.6414 10.4437C35.6096 10.6655 35.434 10.7413 35.4396 10.9999C35.7016 11.2986 35.8299 10.7973 36.0724 10.786C36.1047 10.8081 36.141 10.8268 36.1694 10.855C36.2854 10.8805 36.3712 10.8262 36.4577 10.8166C36.6578 10.7872 36.7783 10.9099 36.9667 10.9427C37.052 10.9212 37.1167 10.8522 37.1875 10.8058C37.2131 10.7889 37.2432 10.786 37.2655 10.7651C37.2912 10.7413 37.2968 10.6972 37.3224 10.6684C37.3955 10.5863 37.5203 10.5648 37.6006 10.4941C37.6882 10.4143 37.7317 10.2525 37.8805 10.2684C37.885 10.2435 37.8928 10.2237 37.9084 10.2095C37.9184 10.1767 37.8649 10.2027 37.8705 10.1711C38.0015 10.11 38.1682 10.0834 38.331 10.0539C38.331 10.024 38.3873 10.0076 38.36 9.98606ZM39.561 10.377C39.5097 10.3379 39.4584 10.2983 39.3982 10.2683C39.3285 10.2893 39.2465 10.2966 39.1869 10.3277C39.1567 10.4477 39.2956 10.5161 39.3402 10.6214C39.4701 10.5931 39.5849 10.5501 39.5989 10.4069C39.6346 10.4228 39.6764 10.4307 39.7154 10.4437C39.7466 10.3911 39.7918 10.3515 39.8197 10.2983C39.7048 10.2706 39.561 10.2214 39.561 10.377ZM36.8134 8.63108C36.7844 8.61919 36.8279 8.59374 36.8033 8.58355C36.7381 8.61071 36.6433 8.60788 36.621 8.67916C36.7125 8.695 36.7599 8.67124 36.8134 8.63108ZM37.0052 13.1446C37.1529 13.088 37.4869 12.8074 37.2455 12.6779C37.1245 12.7882 36.9885 12.8844 36.911 13.0383C36.9277 13.0875 36.9712 13.1107 37.0052 13.1446ZM36.9957 8.48513C37.1184 8.50097 37.1501 8.4263 37.2271 8.39688C37.1379 8.31993 37.0637 8.45119 36.9957 8.48513ZM36.6104 8.62142C36.7582 8.5903 36.882 8.53769 36.9767 8.45509C36.8206 8.38267 36.6768 8.51223 36.6104 8.62142ZM41.964 8.37762C41.9852 8.45512 42.0906 8.53603 42.1742 8.48511C42.0878 8.4721 42.0448 8.33292 41.964 8.37762ZM41.7242 9.35295C41.7923 9.38011 41.8218 9.44743 41.8965 9.46836C41.9333 9.42876 42.0175 9.43612 42.051 9.39199C42.008 9.29977 41.7627 9.22113 41.7242 9.35295ZM37.7551 8.00706C37.7607 8.07439 37.701 8.07665 37.6776 8.11399C37.745 8.10494 37.817 8.09985 37.8705 8.07552C37.8649 8.03479 37.8755 8.00989 37.89 7.98726C37.8331 7.9635 37.8075 8.00197 37.7551 8.00706ZM45.9036 16.6653C45.8495 16.8492 45.9203 16.9549 45.9516 17.0856C46.0536 17.0019 46.0352 16.6975 45.961 16.5968C45.9594 16.6359 45.9254 16.6449 45.9036 16.6653ZM42.1368 9.25506C42.0722 9.27543 42.0069 9.21489 41.9746 9.28278C42.0175 9.30937 42.0722 9.35972 42.1279 9.34332C42.1307 9.29692 42.1056 9.27882 42.1368 9.25506ZM38.4275 14.5494C38.4085 14.533 38.4085 14.4962 38.3695 14.5019C38.3684 14.542 38.3438 14.5856 38.3879 14.598C38.399 14.5782 38.4314 14.5833 38.4275 14.5494ZM38.263 14.7932C38.2859 14.8832 38.3215 14.9618 38.3879 15.0071C38.3762 14.8753 38.4938 14.8623 38.4364 14.735C38.3695 14.6767 38.3015 14.7395 38.263 14.7932ZM39.0425 15.174C38.9917 15.0727 38.8841 15.0642 38.7932 15.1344C38.7642 15.1214 38.7559 15.0852 38.7152 15.0852C38.7051 15.1168 38.6996 15.153 38.6873 15.1819C38.7916 15.2136 38.8663 15.2741 38.9466 15.3301C38.9622 15.2622 39.0034 15.2175 39.0425 15.174ZM40.186 15.5445C40.2033 15.5015 40.1252 15.4766 40.0906 15.4568C40.0722 15.4755 40.0839 15.5208 40.0789 15.5524C40.1408 15.5524 40.133 15.5094 40.186 15.5445ZM41.349 10.9031C41.4087 10.9337 41.4984 10.9337 41.5882 10.932C41.6016 10.8041 41.4694 10.8256 41.4444 10.7373C41.465 10.6604 41.4878 10.5721 41.4538 10.4941C41.514 10.4335 41.5598 10.36 41.5804 10.2582C41.6133 10.2582 41.6356 10.2435 41.6663 10.2406C41.6384 10.1003 41.4338 10.2253 41.3691 10.2582C41.3691 10.3017 41.3663 10.3459 41.3775 10.377C41.2091 10.4386 41.2258 10.799 41.349 10.9031ZM37.1875 11.3314C37.0821 11.2912 36.9349 11.3093 36.8335 11.255C36.8123 11.3059 36.7766 11.3399 36.7649 11.4004C36.8033 11.5073 36.8719 11.5843 36.9767 11.625C37.0793 11.5605 37.2159 11.5282 37.3509 11.4977C37.3074 11.4417 37.2655 11.3619 37.1875 11.3314ZM32.3642 13.8184C32.348 13.8727 32.319 13.9672 32.3446 14.0311C32.4043 14.0159 32.4138 13.8575 32.3642 13.8184ZM32.4478 13.1276C32.435 13.1751 32.4233 13.2215 32.411 13.2696V13.2724C32.4221 13.2317 32.4467 13.1774 32.4478 13.1276ZM32.4506 13.2826C32.4004 13.428 32.3413 13.6198 32.3541 13.7991C32.3948 13.6424 32.4444 13.4416 32.4506 13.2826ZM33.671 18.8399C33.6443 18.5746 33.5445 18.4281 33.4307 18.2352C33.3538 18.1039 33.2886 17.95 33.2105 17.8437C33.1442 17.756 33.0288 17.696 32.9691 17.601C32.881 17.4595 32.8392 17.3028 32.7678 17.1534C32.7427 17.1003 32.6965 17.0539 32.682 17.0052C32.6379 16.8643 32.6312 16.7065 32.5944 16.5583C32.5621 16.4231 32.5214 16.2754 32.4701 16.1481C32.4422 16.0768 32.3458 15.9705 32.3341 15.885C32.3296 15.842 32.3458 15.7894 32.3446 15.7481C32.338 15.3578 32.29 14.9148 32.2309 14.607C32.2203 14.6455 32.2142 14.6834 32.2086 14.7185C32.2036 14.8248 32.2014 14.9334 32.2014 15.0421C32.2014 16.7167 32.7505 18.2629 33.6727 19.5058C33.6939 19.5154 33.7145 19.52 33.7385 19.5228C33.671 19.4323 33.6538 19.2665 33.6125 19.1319C33.5673 18.978 33.5155 18.8875 33.671 18.8399ZM43.5296 16.1764C43.5664 16.1046 43.5725 16.0435 43.5792 15.9546C43.4755 15.9665 43.3763 15.9829 43.2893 16.0123C43.1304 15.9444 43.0356 15.8138 42.923 15.7C42.9146 15.7691 42.8644 15.7464 42.8098 15.7594C42.802 15.7804 42.7897 15.7962 42.7903 15.8251C42.9888 15.9303 43.0696 16.1549 43.2993 16.2262C43.3796 16.2126 43.4499 16.19 43.5296 16.1764ZM42.5695 14.5386C42.6013 14.6518 42.6921 14.7078 42.7618 14.7841C42.8248 14.7666 42.909 14.7694 42.9726 14.753C42.9737 14.7095 43.0072 14.6976 43.0116 14.6574C42.9469 14.5115 42.8644 14.3836 42.7903 14.2473C42.6353 14.1805 42.5383 14.0543 42.4831 13.8863C42.5645 13.836 42.584 13.7222 42.6269 13.6317C42.6068 13.6317 42.6163 13.6051 42.589 13.613C42.5851 13.6453 42.5661 13.6623 42.55 13.6821C42.516 13.6809 42.507 13.6543 42.473 13.6521C42.4134 13.7053 42.3643 13.7703 42.3097 13.8275C42.2567 14.1115 42.4931 14.2433 42.6163 14.4323C42.6024 14.469 42.5778 14.4967 42.5695 14.5386ZM42.1658 17.7385C42.2322 17.7419 42.2885 17.756 42.3476 17.7673C42.3175 17.6321 42.2695 17.515 42.2422 17.3781C41.9746 17.0946 41.6122 16.9045 41.5124 16.4503C41.4276 16.3942 41.1901 16.233 41.1751 16.4033C41.1706 16.4672 41.2782 16.5832 41.339 16.6935C41.4087 16.8191 41.4633 16.9724 41.6562 16.9396C41.6874 16.9668 41.7276 16.9894 41.7426 17.0352C41.606 17.2983 41.8397 17.5184 42.051 17.5823C42.0794 17.644 42.1246 17.6875 42.1658 17.7385ZM41.0608 19.7079C41.189 19.7135 41.2375 19.64 41.2531 19.5319C41.2063 19.5251 41.2035 19.5251 41.1561 19.5319C41.1516 19.5461 41.1678 19.5823 41.1472 19.5806C41.1082 19.5845 41.0552 19.571 41.0323 19.5919C41.0139 19.649 41.0446 19.6609 41.0608 19.7079ZM41.0892 14.5691C41.1427 14.5652 41.2258 14.6161 41.315 14.6195C41.4025 14.6212 41.4968 14.5821 41.5693 14.5691C41.6401 14.5572 41.746 14.5137 41.7426 14.452C41.7399 14.4079 41.5631 14.2727 41.4929 14.2472C41.4215 14.2206 41.3289 14.2472 41.2816 14.198C41.3078 14.1097 41.4115 14.0017 41.3005 13.9344C41.1823 14.0175 41.0619 14.095 41.0039 14.2376C41.053 14.2817 41.1845 14.2404 41.2241 14.2472C41.1673 14.2953 41.1171 14.3524 41.0524 14.3937C41.0006 14.3711 40.9191 14.3762 40.8768 14.3445C40.8612 14.2795 40.9498 14.2795 40.9253 14.2376C40.816 14.2251 40.7547 14.0696 40.6387 14.0911C40.5807 14.1018 40.5445 14.1697 40.4926 14.207C40.5088 14.3445 40.4737 14.5137 40.4848 14.6761C40.4753 14.7026 40.4185 14.7321 40.4447 14.7643C40.5021 14.7275 40.6069 14.8198 40.6956 14.7999C40.7837 14.7785 40.85 14.6432 40.9448 14.6178C40.9922 14.6053 41.0357 14.572 41.0892 14.5691ZM42.9146 14.2664C42.9191 14.2234 42.8984 14.2036 42.8672 14.198C42.8773 14.2263 42.8784 14.2647 42.9146 14.2664ZM46.8074 14.9776C46.7572 15.1094 46.7739 15.3323 46.8074 15.4659V15.467C46.8029 15.5451 46.7979 15.6209 46.7929 15.6978C46.7589 15.6378 46.7366 15.5541 46.7293 15.4449C46.7143 15.2045 46.7388 14.7666 46.5571 14.9595C46.4718 14.8339 46.4522 14.6438 46.2504 14.6376C46.1969 14.7626 46.1606 14.8447 46.1333 15.0166C46.125 15.0783 46.0887 15.1309 46.077 15.1932C46.062 15.2633 46.0804 15.3578 46.0569 15.4257C45.9867 15.6333 45.8763 15.7946 45.8746 15.9733C45.8724 16.0695 45.9092 16.164 45.9137 16.2568C45.9215 16.5238 45.8334 16.7405 45.7497 16.9662C45.7486 16.9006 45.6767 16.9046 45.6243 16.8898C45.6048 16.7829 45.5312 16.7314 45.471 16.6652C45.4788 16.5996 45.4604 16.5583 45.4604 16.5006C45.4308 16.4486 45.3767 16.4231 45.3461 16.3733C45.3154 16.1606 45.3098 15.923 45.1626 15.8251C45.1169 15.8421 45.1141 15.9015 45.0673 15.9145C44.9156 15.8353 44.8376 15.6803 44.6162 15.6718C44.6012 15.6497 44.5728 15.6429 44.5783 15.6028C44.3921 15.6537 44.2694 15.7708 44.1652 15.9049C44.0124 15.863 43.8619 15.8613 43.732 15.923C43.7353 16.0412 43.8708 16.044 43.9332 16.1006C43.9996 16.1583 44.013 16.2392 44.0777 16.2964C44.013 16.4819 43.9399 16.6618 43.9232 16.9006C43.8435 17.0737 43.6784 17.0805 43.5296 17.1631C43.4387 17.2123 43.4064 17.3306 43.3283 17.4052C43.2302 17.4992 43.0713 17.571 42.9352 17.6689C42.802 17.7639 42.6252 17.8997 42.4541 17.9529V18.0485C42.6453 18.2097 42.9843 17.8759 43.1644 17.8165C43.2263 17.8199 43.282 17.8256 43.3378 17.8358C43.4075 17.9716 43.306 18.0508 43.2503 18.1752C43.219 18.2516 43.1761 18.3387 43.1549 18.4004C43.1281 18.4768 43.1304 18.5707 43.0986 18.6357C43.0467 18.7325 42.9146 18.8372 42.8193 18.9169C42.6481 19.0612 42.5227 19.2926 42.3966 19.4046C42.3403 19.4549 42.2589 19.4742 42.2032 19.5228C42.0816 19.6275 42.022 19.7752 41.916 19.8725C42.0025 20.0903 41.9673 20.402 42.0125 20.7019C41.848 20.9327 41.5469 21.0243 41.3189 21.189C41.2899 21.2603 41.2414 21.3112 41.2531 21.4238C41.1673 21.4764 41.0864 21.5352 41.0223 21.6093C41.0039 21.6376 41.0256 21.6693 41.0128 21.6868C40.8701 21.882 40.5668 21.9838 40.2629 22.0472C40.0009 22.101 39.6301 22.1971 39.3307 22.0851C39.3212 22.0636 39.3246 22.0285 39.3123 22.0076C39.1724 21.9312 38.9923 21.83 38.8986 21.7061C38.8551 21.6472 38.8507 21.5833 38.8105 21.5013C38.7475 21.3627 38.5652 21.301 38.4944 21.1692C38.5507 21.0832 38.51 20.9446 38.5429 20.858C38.5663 20.7992 38.6343 20.7935 38.6767 20.7505C38.6655 20.6249 38.7062 20.5531 38.7542 20.4874C38.5172 20.2119 38.3126 19.9013 38.0528 19.6484C38.0539 19.4929 38.1353 19.3458 38.2167 19.2405C38.1777 19.1715 38.1203 19.1229 38.0623 19.0736C37.8303 19.0821 37.6469 19.0397 37.5627 18.8977C37.4657 18.8852 37.4061 18.8089 37.3224 18.8015C37.2109 18.7913 37.0821 18.8434 36.9767 18.849C36.8067 18.8586 36.698 18.7913 36.5524 18.7613C36.3356 18.7161 36.1014 18.7302 35.9196 18.6357C35.8338 18.5888 35.7652 18.4886 35.6888 18.4106C35.6219 18.3427 35.5176 18.2425 35.487 18.1577C35.4507 18.0525 35.4675 17.9557 35.4295 17.8731C35.3621 17.7322 35.2322 17.6796 35.1424 17.5224C35.2065 17.2774 35.0025 17.0573 35.1803 16.8791C35.2182 16.7082 35.2316 16.5453 35.2662 16.4033C35.3197 16.1827 35.4641 15.9875 35.6414 15.8851C35.763 15.8138 35.918 15.7946 36.0456 15.7086C36.1477 15.6401 36.209 15.5236 36.2753 15.4257C36.2887 15.385 36.2425 15.3804 36.2653 15.3595C36.3294 15.3561 36.3662 15.3176 36.4276 15.2995C36.4811 15.2859 36.548 15.2978 36.6032 15.2707C36.6718 15.2362 36.7409 15.0891 36.8134 15.0851C36.897 15.0817 36.9606 15.2299 37.0342 15.2418C37.0988 15.2509 37.1752 15.1881 37.2561 15.1739C37.3837 15.1513 37.6006 15.1343 37.7551 15.153C37.9073 15.1739 38.0472 15.2277 38.1883 15.2311C38.2624 15.2345 38.3293 15.2045 38.4085 15.2113C38.4364 15.3154 38.4988 15.3765 38.5234 15.4659C38.5457 15.5462 38.5234 15.6294 38.5618 15.7001C38.6343 15.833 38.733 15.7578 38.8802 15.7878C38.9761 15.8081 39.062 15.9614 39.1768 16.0124C39.2928 16.0622 39.377 16.0407 39.4561 16.1193C39.5158 16.0735 39.5331 15.9829 39.5526 15.8947C39.5978 15.8585 39.6652 15.8392 39.7154 15.807C39.9975 15.8251 40.2808 16.0152 40.5696 16.0022C40.6287 15.9999 40.6805 15.953 40.7435 15.9445C40.8389 15.9303 40.9426 15.9614 41.0128 15.8947C41.0485 15.902 41.0792 15.9117 41.1082 15.923C41.2063 15.7708 41.3691 15.5451 41.2342 15.2995C41.126 15.3623 41.0814 15.2362 41.0312 15.2328C40.9894 15.2299 40.961 15.3114 40.9175 15.325C40.8472 15.3487 40.7547 15.3872 40.6805 15.3227C40.6142 15.265 40.5852 15.351 40.5027 15.3685C40.4798 15.3222 40.4207 15.2531 40.3945 15.2169C40.361 15.1671 40.3399 15.1066 40.2925 15.0642C40.2897 15.0195 40.2479 14.9861 40.2551 14.9488C40.2691 14.8888 40.3337 14.8481 40.3689 14.8085C40.2568 14.9386 39.9741 14.7626 39.9072 14.9386C39.9323 15.0449 39.9563 15.1553 40.0226 15.222C40.0209 15.2741 39.9747 15.2203 39.9552 15.2509C39.9585 15.3199 40.0499 15.2978 40.0405 15.3787C39.9775 15.3663 39.9273 15.3629 39.8882 15.407C39.8319 15.394 39.828 15.3533 39.7533 15.3787C39.6764 15.2837 39.6959 15.1587 39.6379 15.0642C39.5888 14.9861 39.4338 14.9618 39.4177 14.8435C39.4233 14.7892 39.4601 14.7666 39.4745 14.7253C39.4372 14.5901 39.2582 14.5584 39.1478 14.4815C39.0932 14.4441 39.0608 14.3593 39.0034 14.3349C38.9387 14.3066 38.8651 14.3293 38.8016 14.3055C38.8072 14.3898 38.8445 14.4396 38.8601 14.5114C38.98 14.5822 39.1166 14.6342 39.1869 14.753C39.2844 14.7666 39.3759 14.8633 39.3402 14.9482C39.2822 14.9618 39.3023 14.8978 39.2543 14.9007C39.1947 14.9476 39.2108 15.0727 39.1869 15.153C39.1467 15.1524 39.1406 15.1835 39.101 15.1818C39.0608 15.0976 39.1116 15.0234 39.0714 14.9007C39.0006 14.8056 38.8774 14.8 38.7837 14.744C38.728 14.7128 38.6778 14.6382 38.6109 14.5782C38.5256 14.503 38.4353 14.4588 38.4085 14.3547C38.2931 14.3762 38.1939 14.4119 38.0712 14.413C38.0054 14.413 37.929 14.3819 37.8593 14.4039C37.7902 14.4254 37.7551 14.5454 37.6876 14.598C37.6179 14.6517 37.5588 14.6433 37.4964 14.6857C37.4479 14.7909 37.4038 14.9205 37.2828 14.9776C37.2432 14.9985 37.1624 14.9985 37.1022 15.0166C37.0364 15.0381 36.9394 15.0783 36.8335 15.0563C36.6801 15.0257 36.5915 14.8367 36.4476 14.822C36.4632 14.6783 36.4694 14.5799 36.4772 14.4226C36.5508 14.3202 36.6188 14.2105 36.6874 14.1018C36.9355 14.1143 37.3102 14.2817 37.4183 14.0226C37.4088 13.8535 37.343 13.7431 37.3035 13.6028C37.4161 13.5084 37.5538 13.5559 37.6876 13.535C37.8861 13.5038 37.9441 13.2798 38.1008 13.204C38.2128 13.148 38.3176 13.1791 38.4186 13.0857C38.4581 13.0874 38.4888 13.1016 38.5234 13.1061C38.6003 12.9913 38.5775 12.778 38.6968 12.7061C38.7074 12.8261 38.7826 12.8793 38.8105 12.9794C38.762 12.9913 38.7191 13.0082 38.7062 13.0575C38.7559 13.1395 38.9276 13.1208 39.033 13.1344C39.0876 13.1429 39.1367 13.1683 39.1869 13.165C39.3335 13.1542 39.4679 13.019 39.6184 13.0382C39.6418 12.8985 39.6351 12.7271 39.8119 12.7446C39.8453 12.6824 39.8464 12.5658 39.8303 12.4815C39.7154 12.4295 39.6301 12.3486 39.5989 12.2088C39.6886 12.1076 39.799 12.0301 39.8197 11.8581C39.7176 11.8734 39.668 11.9441 39.5905 12.0238C39.5102 12.1064 39.406 12.1613 39.3876 12.2779C39.3692 12.3978 39.4444 12.4747 39.4946 12.5681H39.445C39.4829 12.778 39.2788 12.8883 39.159 12.9986C39.1015 12.9873 39.0358 12.9873 38.9655 12.9901C38.9081 12.847 38.8239 12.7305 38.7542 12.5992C38.6449 12.5794 38.5379 12.5607 38.4464 12.5217C38.4063 12.3192 38.4643 12.206 38.5429 12.0827C38.7648 12.0125 38.9705 11.9248 39.0519 11.7121C39.2565 11.698 39.2582 11.4807 39.4656 11.4683C39.527 11.3619 39.6022 11.2889 39.7812 11.255C39.9518 11.2205 40.0717 11.1797 40.186 11.3116C40.3493 11.2923 40.5211 11.3738 40.6772 11.4094C40.7207 11.4208 40.7792 11.4043 40.821 11.4208C40.8868 11.4428 40.8963 11.5232 40.9448 11.556C40.8751 11.6606 40.6722 11.6799 40.5027 11.6521C40.4731 11.6776 40.5478 11.7178 40.4848 11.7212C40.5266 11.8202 40.6287 11.8615 40.734 11.8971C40.7625 11.8072 40.8768 11.8038 40.8974 11.7014C40.9961 11.6855 41.005 11.5769 41.1277 11.586C41.126 11.5124 41.0675 11.4553 41.0524 11.3698C41.0987 11.3619 41.1845 11.3993 41.2431 11.4094C41.3262 11.3184 41.4577 11.2782 41.5403 11.186C41.6702 11.1769 41.6964 11.0649 41.8096 11.0394C41.8235 10.9455 41.8781 10.894 41.9534 10.8646C42.0538 10.9008 42.1379 10.885 42.2138 10.8346C42.1424 10.6791 41.9919 10.5772 42.0025 10.3662C42.1168 10.4335 42.2205 10.5076 42.3392 10.5704C42.3342 10.5008 42.2383 10.4386 42.2032 10.3662C42.3799 10.3973 42.3833 10.2547 42.4831 10.2095C42.4452 10.175 42.3782 10.2027 42.3297 10.1416C42.3336 10.128 42.352 10.1348 42.3682 10.1337C42.2913 9.9747 42.3336 9.75858 42.2422 9.61601C42.2673 9.53568 42.3392 9.50626 42.3849 9.45025C42.3671 9.36312 42.2941 9.32918 42.2612 9.25507C42.2824 9.16851 42.337 9.10514 42.4067 9.10797C42.507 9.11306 42.5723 9.30202 42.6855 9.2941C42.6832 9.20019 42.6163 9.1736 42.5974 9.09892C42.6213 9.10005 42.6381 9.09439 42.6453 9.07968C42.6208 9.00727 42.6041 8.92524 42.5695 8.86583C42.5762 8.80643 42.6303 8.79681 42.6548 8.75664C42.5935 8.62143 42.4379 8.58352 42.3297 8.48508C42.269 8.43134 42.2338 8.34025 42.1279 8.3278C42.1039 8.27858 42.037 8.2684 42.0303 8.20277C41.9896 8.17222 41.9177 8.17449 41.9066 8.11395C41.7672 8.07322 41.6635 8.00703 41.5297 7.93857C41.4148 7.8786 41.2314 7.83787 41.0663 7.79147C41.9066 7.97761 42.6921 8.308 43.3947 8.75608L43.3952 8.75664C43.5943 8.92127 43.7994 9.0678 44.0146 9.19793C44.6653 9.71672 45.2295 10.3447 45.6767 11.0553C45.6962 11.1328 45.7258 11.2052 45.7603 11.2725C45.7854 11.2527 45.7464 11.2233 45.7698 11.2154L45.7765 11.2182C46.1902 11.9158 46.4941 12.6875 46.6641 13.5095C46.6563 13.5106 46.6485 13.5146 46.6446 13.5248C46.6591 13.6747 46.7003 13.7992 46.7204 13.9463C46.7266 13.9553 46.7349 13.9632 46.7444 13.9689C46.7935 14.3134 46.8191 14.6653 46.8191 15.0217C46.8163 15.007 46.8146 14.9906 46.8074 14.9776ZM32.566 12.7231C32.5403 12.8001 32.5169 12.8787 32.4935 12.9579C32.4773 13.0269 32.4651 13.0965 32.4701 13.165C32.5219 13.0445 32.5621 12.8645 32.566 12.7231ZM46.7093 16.2642H46.7204C46.7327 16.1884 46.7444 16.112 46.7555 16.0322C46.7048 16.0747 46.6753 16.1901 46.7093 16.2642ZM42.8098 20.4105C42.7607 20.4722 42.7156 20.5582 42.6548 20.5944C42.6163 20.6204 42.5622 20.6204 42.5204 20.6431C42.3643 20.7358 42.3141 20.8925 42.2718 21.0628C42.1379 21.0832 42.0917 21.1913 42.0398 21.2976C42.2316 21.4464 42.4831 21.2699 42.5974 21.1403V21.0538C42.8327 20.8558 43.1298 20.6736 43.0395 20.2063C42.928 20.1978 42.8856 20.3098 42.8098 20.4105Z" fill="#C7AD98"/>
<path fill-rule="evenodd" clip-rule="evenodd" d="M0 42.7596C0.554201 42.6725 1.10227 42.6289 1.64086 42.6289C2.18112 42.6289 2.73532 42.6725 3.30513 42.7596V48.8957H8.72337V42.7596C9.27813 42.6725 9.82508 42.6289 10.3648 42.6289C10.9039 42.6289 11.4581 42.6725 12.0279 42.7596V58.4042C11.4581 58.4914 10.9117 58.5349 10.3865 58.5349C9.83233 58.5349 9.27813 58.4914 8.72337 58.4042V51.6368H3.30513V58.4042C2.73532 58.4914 2.18893 58.5349 1.66428 58.5349C1.10952 58.5349 0.554201 58.4914 0 58.4042V42.7596Z" fill="#144C3B"/>
<path fill-rule="evenodd" clip-rule="evenodd" d="M22.5267 52.6381L20.6606 46.0669L18.7047 52.6381H22.5267ZM18.9294 42.7596C19.2444 42.716 19.5438 42.6832 19.8287 42.6612C20.1125 42.6397 20.4276 42.6289 20.7727 42.6289C21.0721 42.6289 21.3653 42.6397 21.6497 42.6612C21.934 42.6832 22.2491 42.716 22.5936 42.7596L27.6522 58.4042C27.0373 58.4914 26.4379 58.5349 25.8542 58.5349C25.2843 58.5349 24.7301 58.4914 24.1899 58.4042L23.2911 55.2711H17.9403L17.0182 58.4042C16.479 58.4914 15.9622 58.5349 15.4671 58.5349C14.9129 58.5349 14.3659 58.4914 13.8262 58.4042L18.9294 42.7596Z" fill="#144C3B"/>
<path fill-rule="evenodd" clip-rule="evenodd" d="M31.8114 52.8119L26.7762 42.7591C27.4051 42.672 28.034 42.6284 28.6641 42.6284C29.2339 42.6284 29.8026 42.672 30.3724 42.7591L33.5655 49.853L36.7128 42.7591C37.2676 42.672 37.8368 42.6284 38.4206 42.6284C38.9608 42.6284 39.5373 42.672 40.1523 42.7591L35.1166 52.8119V58.4258C34.816 58.4694 34.5317 58.4988 34.2618 58.5129C33.9925 58.5276 33.7227 58.5344 33.4523 58.5344C33.198 58.5344 32.9321 58.5276 32.6544 58.5129C32.3768 58.4988 32.0958 58.4694 31.8114 58.4258V52.8119Z" fill="#144C3B"/>
<path fill-rule="evenodd" clip-rule="evenodd" d="M42.1081 42.7594C42.7671 42.6864 43.386 42.6253 43.9625 42.5744C44.5396 42.5235 45.1802 42.498 45.8844 42.498C46.709 42.498 47.5224 42.5705 48.3236 42.7159C49.1265 42.8607 49.8496 43.1181 50.4941 43.4881C51.1381 43.8575 51.6589 44.3582 52.0564 44.989C52.4539 45.6204 52.6519 46.4221 52.6519 47.3935C52.6519 47.9745 52.576 48.4854 52.4272 48.9278C52.2766 49.3708 52.0859 49.7583 51.854 50.0921C51.6209 50.4259 51.3701 50.7121 51.1013 50.9509C50.8315 51.1908 50.5761 51.3831 50.3358 51.528L49.9539 51.7673L53.8885 58.382C53.5885 58.4114 53.2735 58.4403 52.9446 58.4697C52.6151 58.4985 52.2766 58.5133 51.9321 58.5133C51.3628 58.5133 50.8002 58.4697 50.246 58.382L46.0198 51.115L46.5595 50.8542C46.7692 50.7523 47.024 50.6216 47.3234 50.4615C47.6239 50.3025 47.9122 50.1028 48.1898 49.8635C48.4664 49.6242 48.7022 49.334 48.8979 48.9934C49.0919 48.6523 49.19 48.25 49.19 47.7855C49.19 46.8718 48.9202 46.2009 48.381 45.7726C47.8408 45.3449 47.1433 45.1305 46.2897 45.1305C45.9602 45.1305 45.6608 45.1525 45.3909 45.1967V58.4041C45.1205 58.4329 44.8507 58.4584 44.5819 58.4804C44.3115 58.5019 44.0489 58.5133 43.7941 58.5133C43.5382 58.5133 43.27 58.5048 42.984 58.4912C42.7002 58.4765 42.4081 58.4476 42.1081 58.4041V42.7594Z" fill="#144C3B"/>
<path fill-rule="evenodd" clip-rule="evenodd" d="M63.0378 52.6381L61.1717 46.0669L59.2164 52.6381H63.0378ZM59.4416 42.7596C59.7555 42.716 60.0549 42.6832 60.341 42.6612C60.6253 42.6397 60.9398 42.6289 61.2843 42.6289C61.5848 42.6289 61.8764 42.6397 62.1619 42.6612C62.4457 42.6832 62.7613 42.716 63.1058 42.7596L68.1645 58.4042C67.55 58.4914 66.9507 58.5349 66.3653 58.5349C65.7954 58.5349 65.2412 58.4914 64.7021 58.4042L63.8028 55.2711H58.4514L57.5304 58.4042C56.9901 58.4914 56.4738 58.5349 55.9793 58.5349C55.424 58.5349 54.877 58.4914 54.3379 58.4042L59.4416 42.7596Z" fill="#144C3B"/>
<path fill-rule="evenodd" clip-rule="evenodd" d="M71.5584 45.4573H67.534C67.4443 45.0217 67.3991 44.5651 67.3991 44.0865C67.3991 43.6368 67.4443 43.1943 67.534 42.7593H78.8879C78.9777 43.1943 79.0223 43.6368 79.0223 44.0865C79.0223 44.5651 78.9777 45.0217 78.8879 45.4573H74.8641V58.4045C74.5937 58.4333 74.3238 58.4582 74.054 58.4809C73.7847 58.5024 73.5221 58.5131 73.2678 58.5131C73.0119 58.5131 72.7387 58.5046 72.4471 58.491C72.1544 58.4769 71.8584 58.448 71.5584 58.4045V45.4573Z" fill="#144C3B"/>
<path fill-rule="evenodd" clip-rule="evenodd" d="M2.40956 65.2541L0.0271606 60.2682C0.32489 60.2246 0.62262 60.2031 0.92035 60.2031C1.18964 60.2031 1.45894 60.2246 1.72879 60.2682L3.23863 63.786L4.72783 60.2682C4.98988 60.2246 5.25973 60.2031 5.53628 60.2031C5.79107 60.2031 6.06427 60.2246 6.35531 60.2682L3.97292 65.2541V68.0382C3.83074 68.0602 3.69637 68.0738 3.5687 68.0817C3.44102 68.0885 3.31334 68.0925 3.18566 68.0925C3.06523 68.0925 2.93922 68.0885 2.8082 68.0817C2.67662 68.0738 2.54392 68.0602 2.40956 68.0382V65.2541Z" fill="#C7AD98"/>
<path fill-rule="evenodd" clip-rule="evenodd" d="M17.4903 65.168L16.6077 61.9088L15.6827 65.168H17.4903ZM15.7887 60.2681C15.9375 60.2466 16.0791 60.2302 16.2141 60.22C16.349 60.2087 16.4973 60.2036 16.6607 60.2036C16.8028 60.2036 16.9411 60.2087 17.0755 60.22C17.2104 60.2302 17.3593 60.2466 17.5221 60.2681L19.9151 68.0279C19.6246 68.0709 19.3408 68.0924 19.0642 68.0924C18.7949 68.0924 18.5329 68.0709 18.2775 68.0279L17.8521 66.4738H15.3209L14.8849 68.0279C14.6295 68.0709 14.3848 68.0924 14.1506 68.0924C13.8885 68.0924 13.6298 68.0709 13.3745 68.0279L15.7887 60.2681Z" fill="#C7AD98"/>
<path fill-rule="evenodd" clip-rule="evenodd" d="M28.296 60.2677C28.6082 60.2321 28.9004 60.2015 29.1736 60.1761C29.4462 60.1512 29.7495 60.1382 30.0829 60.1382C30.4727 60.1382 30.8574 60.1744 31.2365 60.2462C31.6162 60.3187 31.958 60.446 32.2629 60.6298C32.5679 60.8131 32.8143 61.0609 33.0022 61.3743C33.1901 61.6872 33.2844 62.0849 33.2844 62.5664C33.2844 62.8543 33.2481 63.1084 33.1779 63.3273C33.1071 63.5468 33.0162 63.7397 32.9063 63.9049C32.7965 64.0707 32.6777 64.2127 32.5501 64.3315C32.4224 64.4503 32.302 64.5454 32.1882 64.6166L32.0076 64.7355L33.8692 68.0168C33.727 68.0309 33.5782 68.0451 33.4221 68.0598C33.2665 68.0739 33.1071 68.0819 32.9437 68.0819C32.6744 68.0819 32.4085 68.0598 32.1464 68.0168L30.1465 64.4118L30.4018 64.2829C30.5011 64.2325 30.6215 64.168 30.7631 64.0882C30.9053 64.009 31.0413 63.91 31.1729 63.7918C31.304 63.673 31.416 63.5293 31.508 63.3601C31.6 63.191 31.6463 62.9913 31.6463 62.761C31.6463 62.3073 31.5186 61.9752 31.2633 61.763C31.0079 61.5509 30.6784 61.4445 30.2742 61.4445C30.1181 61.4445 29.9764 61.4552 29.8488 61.4767V68.0275C29.7211 68.0417 29.5934 68.0547 29.4657 68.0649C29.3386 68.0762 29.2137 68.0819 29.0938 68.0819C28.9729 68.0819 28.8452 68.0779 28.7108 68.0705C28.5759 68.0632 28.4376 68.049 28.296 68.0275V60.2677Z" fill="#C7AD98"/>
<path fill-rule="evenodd" clip-rule="evenodd" d="M43.76 66.776C43.8236 66.7833 43.905 66.7901 44.0042 66.7975C44.1035 66.8048 44.2239 66.8088 44.3661 66.8088C44.6922 66.8088 44.9955 66.7703 45.2754 66.6945C45.5553 66.6198 45.7979 66.4812 46.0036 66.2793C46.2099 66.0784 46.3727 65.8086 46.4931 65.4702C46.6135 65.1325 46.6743 64.6969 46.6743 64.1645C46.6743 63.6463 46.6135 63.2146 46.4931 62.8695C46.3727 62.5238 46.2099 62.2506 46.0036 62.0492C45.7979 61.8478 45.562 61.7058 45.2966 61.6232C45.0307 61.54 44.7486 61.4987 44.4508 61.4987C44.3521 61.4987 44.2362 61.501 44.1057 61.5043C43.9741 61.5077 43.8593 61.5168 43.76 61.5309V66.776ZM42.1961 60.2682C42.4938 60.2325 42.8061 60.202 43.1322 60.1765C43.4584 60.1516 43.8197 60.1392 44.2172 60.1392C45.5576 60.1392 46.5767 60.4769 47.2754 61.1535C47.9734 61.8302 48.3224 62.8446 48.3224 64.1967C48.3224 65.5568 47.9678 66.5564 47.2586 67.1969C46.55 67.8373 45.4968 68.1569 44.1001 68.1569C43.7388 68.1569 43.4049 68.1445 43.1004 68.1196C42.7955 68.0942 42.4938 68.0636 42.1961 68.028V60.2682Z" fill="#C7AD98"/>
<path fill-rule="evenodd" clip-rule="evenodd" d="M57.054 60.2681C57.3166 60.2251 57.5759 60.2036 57.8312 60.2036C58.086 60.2036 58.3481 60.2251 58.6179 60.2681V68.0279C58.3481 68.0709 58.0888 68.0924 57.8412 68.0924C57.5786 68.0924 57.3166 68.0709 57.054 68.0279V60.2681Z" fill="#C7AD98"/>
<path fill-rule="evenodd" clip-rule="evenodd" d="M67.7639 60.2681C68.0477 60.2251 68.3209 60.2036 68.5829 60.2036C68.86 60.2036 69.1327 60.2251 69.402 60.2681L71.1571 64.7143L72.9647 60.2681C73.1849 60.2251 73.4291 60.2036 73.699 60.2036C73.9683 60.2036 74.227 60.2251 74.4751 60.2681L74.837 68.0279C74.5671 68.0709 74.3117 68.0924 74.0714 68.0924C73.83 68.0924 73.5925 68.0709 73.3583 68.0279L73.1665 62.7614L71.6143 66.4087C71.5151 66.4235 71.4119 66.4359 71.306 66.4467C71.1995 66.4574 71.093 66.4631 70.9865 66.4631C70.8945 66.4631 70.802 66.4591 70.71 66.4523C70.618 66.445 70.5221 66.4308 70.4234 66.4087L68.9766 62.6856L68.8277 68.0279C68.6008 68.0709 68.3806 68.0924 68.1687 68.0924C67.9412 68.0924 67.707 68.0709 67.4667 68.0279L67.7639 60.2681Z" fill="#C7AD98"/>
</svg>
