<svg width="24" height="24" viewBox="0 0 24 24" fill="none" xmlns="http://www.w3.org/2000/svg">
<path d="M12 6.00002C14.1217 6.00002 16.1566 6.84288 17.6569 8.34317C19.1571 9.84346 20 11.8783 20 14C20 16.1218 19.1571 18.1566 17.6569 19.6569C16.1566 21.1572 14.1217 22 12 22C9.87827 22 7.84344 21.1572 6.34315 19.6569C4.84285 18.1566 4 16.1218 4 14C4 11.8783 4.84285 9.84346 6.34315 8.34317C7.84344 6.84288 9.87827 6.00002 12 6.00002ZM12 8.00002C10.4087 8.00002 8.88258 8.63216 7.75736 9.75738C6.63214 10.8826 6 12.4087 6 14C6 15.5913 6.63214 17.1174 7.75736 18.2427C8.88258 19.3679 10.4087 20 12 20C13.5913 20 15.1174 19.3679 16.2426 18.2427C17.3679 17.1174 18 15.5913 18 14C18 12.4087 17.3679 10.8826 16.2426 9.75738C15.1174 8.63216 13.5913 8.00002 12 8.00002ZM12 9.50002L13.323 12.18L16.28 12.61L14.14 14.695L14.645 17.641L12 16.25L9.355 17.64L9.86 14.695L7.72 12.609L10.677 12.179L12 9.50002ZM18 1.00002V4.00002L16.637 5.13802C15.5059 4.54461 14.2711 4.17486 13 4.04902V1.00002H18ZM11 0.999023V4.04902C9.72935 4.17467 8.49482 4.54408 7.364 5.13702L6 4.00002V1.00002L11 0.999023Z" fill="#393F49"/>
</svg>
