<svg width="24" height="24" viewBox="0 0 24 24" fill="none" xmlns="http://www.w3.org/2000/svg">
<path d="M2.243 7.85399L11.49 2.30999C11.6454 2.21674 11.8233 2.16748 12.0045 2.16748C12.1857 2.16748 12.3636 2.21674 12.519 2.30999L21.757 7.85499C21.8311 7.8994 21.8925 7.96227 21.9351 8.03746C21.9776 8.11264 22 8.19758 22 8.28399V21C22 21.2652 21.8946 21.5196 21.7071 21.7071C21.5196 21.8946 21.2652 22 21 22H3C2.73478 22 2.48043 21.8946 2.29289 21.7071C2.10536 21.5196 2 21.2652 2 21V8.28299C1.99998 8.19658 2.02236 8.11164 2.06495 8.03646C2.10753 7.96127 2.16888 7.8984 2.243 7.85399ZM18.346 9.24399L12.061 14.683L5.647 9.23799L4.353 10.762L12.073 17.317L19.654 10.757L18.346 9.24399Z" fill="#393F49"/>
</svg>
