<svg width="24" height="24" viewBox="0 0 24 24" fill="none" xmlns="http://www.w3.org/2000/svg">
<path d="M18.364 16.5563L12 23L5.636 16.5563C4.37734 15.2819 3.52019 13.6581 3.17293 11.8905C2.82567 10.1228 3.00391 8.29051 3.6851 6.62539C4.36629 4.96027 5.51984 3.53707 6.99988 2.53576C8.47992 1.53445 10.22 1 12 1C13.78 1 15.5201 1.53445 17.0001 2.53576C18.4802 3.53707 19.6337 4.96027 20.3149 6.62539C20.9961 8.29051 21.1743 10.1228 20.8271 11.8905C20.4798 13.6581 19.6227 15.2819 18.364 16.5563ZM12 12.1377C12.5304 12.1377 13.0391 11.9243 13.4142 11.5445C13.7893 11.1648 14 10.6497 14 10.1126C14 9.57554 13.7893 9.06047 13.4142 8.6807C13.0391 8.30093 12.5304 8.08757 12 8.08757C11.4696 8.08757 10.9609 8.30093 10.5858 8.6807C10.2107 9.06047 10 9.57554 10 10.1126C10 10.6497 10.2107 11.1648 10.5858 11.5445C10.9609 11.9243 11.4696 12.1377 12 12.1377Z" fill="#393F49"/>
</svg>
