<svg width="24" height="24" viewBox="0 0 24 24" fill="none" xmlns="http://www.w3.org/2000/svg">
<path d="M19.7697 12.4399L8.80389 19.9115C8.72599 19.9644 8.63549 19.9948 8.54202 19.9994C8.44856 20.004 8.35563 19.9825 8.27314 19.9374C8.19064 19.8923 8.12167 19.8251 8.07357 19.7431C8.02548 19.661 8.00005 19.5672 8 19.4716V4.52843C8.00005 4.43279 8.02548 4.33896 8.07357 4.25693C8.12167 4.1749 8.19064 4.10774 8.27314 4.0626C8.35563 4.01746 8.44856 3.99603 8.54202 4.0006C8.63549 4.00517 8.72599 4.03557 8.80389 4.08855L19.7697 11.5601C19.8405 11.6084 19.8986 11.6738 19.9388 11.7506C19.979 11.8273 20 11.913 20 12C20 12.087 19.979 12.1727 19.9388 12.2494C19.8986 12.3262 19.8405 12.3916 19.7697 12.4399Z" fill="#393F49"/>
</svg>
