<svg width="24" height="24" viewBox="0 0 24 24" fill="none" xmlns="http://www.w3.org/2000/svg">
<path d="M8.68913 4.32174V6.28599H3.91118V20.0357H19.2006V11.1966H21.1118V21.0179C21.1118 21.2784 21.0111 21.5282 20.8319 21.7123C20.6527 21.8965 20.4097 22 20.1562 22H2.95559C2.70215 22 2.45909 21.8965 2.27989 21.7123C2.10068 21.5282 2 21.2784 2 21.0179V5.30387C2 5.04339 2.10068 4.79359 2.27989 4.6094C2.45909 4.42522 2.70215 4.32174 2.95559 4.32174H8.68913ZM18.1973 6.28599L15.3783 3.38873L16.7295 2L21.8323 7.24455C21.9124 7.32696 21.9669 7.43191 21.989 7.54615C22.0111 7.66039 21.9997 7.77879 21.9564 7.88641C21.913 7.99402 21.8396 8.08601 21.7454 8.15077C21.6512 8.21553 21.5405 8.25014 21.4272 8.25025H13.4671C12.9602 8.25025 12.4741 8.45719 12.1157 8.82556C11.7573 9.19393 11.5559 9.69354 11.5559 10.2145V16.1072H9.64472V10.2145C9.64472 9.17259 10.0474 8.17336 10.7643 7.43663C11.4811 6.69989 12.4533 6.28599 13.4671 6.28599H18.1973Z" fill="#393F49"/>
</svg>
